<svg width="20" height="18" xmlns="http://www.w3.org/2000/svg"><g stroke="#231F20" stroke-width=".75" fill="none" fill-rule="evenodd"><path d="M18.625 13.875a3.75 3.75 0 1 1-7.5 0 3.75 3.75 0 0 1 7.5 0z"/><path d="M14.875 12v3.75M16.75 13.875H13" stroke-linecap="round" stroke-linejoin="round"/><path d="M11.474 9.961c-.582-.192-1.21-.399-1.85-.64V7.448s1.126-.465 1.126-2.25c.586 0 .586-1.554 0-1.554 0-.176.622-1.205.375-2.196-.356-1.429-4.52-1.429-4.875 0-1.776-.358-.75 2.01-.75 2.25-.587 0-.587 1.5 0 1.5 0 1.785 1.125 2.25 1.125 2.25v1.875c-2.084.792-4.566 1.316-4.875 2.25-.356 1.07-.375 3.053-.375 3.053H9.25" stroke-linejoin="round"/></g></svg>