<svg width="18" height="18" xmlns="http://www.w3.org/2000/svg"><g fill="none" fill-rule="evenodd"><path d="M-2-3h24v24H-2z"/><path d="M6.383 7.809A2.663 2.663 0 0 0 4 6.333a2.667 2.667 0 0 0 0 5.334 2.663 2.663 0 0 0 2.383-1.476M14 6.667a2.667 2.667 0 1 0-2.383-1.476M11.617 12.809c-.885 1.765.399 3.858 2.383 3.858a2.667 2.667 0 0 0 0-5.334" stroke="#bebebe" stroke-linejoin="round"/><path d="M14 6.667a2.665 2.665 0 0 1-2.383-1.476L6.383 7.81a2.644 2.644 0 0 1 0 2.382l5.234 2.618A2.665 2.665 0 0 1 14 11.333" stroke="#bebebe" stroke-linejoin="round"/></g></svg>