<svg id="Layer_1" data-name="Layer 1" xmlns="http://www.w3.org/2000/svg" viewBox="0 0 604.5 396.01"><title>illu_feedbackmode</title><path d="M548.42,218.09c8-99.51-206.76-212.74-320.16-188.28C171.7,42,104,120.16,82.86,209.84,62.74,295.09,85.6,364.53,192.68,370,366.12,378.92,544.06,272.37,548.42,218.09Z" fill="#e8f8fe"/><path d="M466,303.26a29.24,29.24,0,0,1-29.25,29.25H158.82a29.26,29.26,0,0,1-29.25-29.25V98.5a29.26,29.26,0,0,1,29.25-29.25H436.71A29.24,29.24,0,0,1,466,98.5Z" fill="#fff"/><path d="M465.24,303.26c2.53,0,3.43-31.1,3.45-36.47,0-2.3.05-4.57.07-6.84l0-157.08c0-1.66,0-3.22,0-5l-.14-2.68-.4-2.65a32.69,32.69,0,0,0-3.71-10A32,32,0,0,0,448.5,68.77,30.58,30.58,0,0,0,438,66.57l-1.34-.07H408.48l-78.54,0c-11.6,0-23.32,0-34.79-.11-8.92-.08-17.79-.48-26.21-.43-8.71.06-16.91.43-26.61.43l-76.67.07h-4.8c-.81,0-1.56,0-2.42,0l-2.62.14a32.7,32.7,0,0,0-10.09,2.68,31.79,31.79,0,0,0-18.42,23.9c-.1.87-.31,1.72-.33,2.6l-.13,2.61v24c0,6.59-.66,28.23-.5,32.37.41,10.47.48,21.68.43,33.61-.16,36.76.36,74.5-.74,109.83v5.25l.15,2.93c.1,1,.27,1.93.41,2.9a32.35,32.35,0,0,0,11.66,19.36,30.37,30.37,0,0,0,9.67,5.12l1.25.43,1.85.47,1.12.29c.39.09.82.14,1.26.22l1.37.21.72.11.76.05,1.58.09c.54,0,1.11.07,1.6.06l3.21,0,7,.08c9.65.13,20.17.27,26,.28l237.39.11h3.57c1.28-.07,2.58-.1,3.81-.24a33.3,33.3,0,0,0,6.88-1.64A30.24,30.24,0,0,0,463.41,321a27.49,27.49,0,0,0,2.66-6.46,25.43,25.43,0,0,0,.81-4.93,28,28,0,0,0-.15-3.36,7.09,7.09,0,0,0-1-2.95c-.19-.22-.49,1-.89,3a34.59,34.59,0,0,1-2.66,7.19,31.51,31.51,0,0,1-4.81,6.76,43.47,43.47,0,0,1-4.05,3.56,27.56,27.56,0,0,1-6.93,4l-1.54.56c-.54.2-1.13.3-1.71.47a28.47,28.47,0,0,1-3.85.68l-2.14.1c-.71,0-1.61,0-2.44,0h-5.34l-55.43,0H254.45l-69.68.09c-4.84,0-9.32.09-13.67.19l-6.47.15-3.21.06-1.61,0c-.54,0-1.09,0-1.57,0a24.43,24.43,0,0,1-11-2.84,28.16,28.16,0,0,1-8.92-7.39,26.67,26.67,0,0,1-5.64-13.44c-.13-.95-.11-1.93-.18-2.92s0-2.21,0-3.33c0-9.07,0-19,.06-28.47,0-18.86.09-35.53.19-38.37.33-9,.44-16.84,0-25.41.27-10.87.21-20.62-.08-32.1-.32-12.62-.31-27.92.1-40.77.08-2.7.16-7.35.21-12.81,4.53.51,14.11.88,32,.88,9.81.07,61.51.42,70.85.31,2.3,0,4.87.17,7.51.17s5-.23,7.72-.22,4.71.27,7.86.28c3.84,0,7.16-.26,10.6-.32,16.7-.29,33.93.07,45,0l17.87-.46,48.75.12,17.5-.51c17.29,0,36.21.39,52.46,0,4.27-.1,8.41-.25,11.23-.47,0,20.1-.06,40.48-.09,60.52C462.3,229,462.26,303.27,465.24,303.26ZM457.4,119.15c-3.87-.38-12.12-.62-19.44-.89-4.93-.18-10.8-.18-16.24,0-3.87.12-25.73.32-32.63.38-6.62.07-13,.23-19.14.35l-10.67-.42-24.84-.06c-6.26.2-11.22.46-16.49.5-8.39.06-16.34.1-23.76.46-3.24.16-8,0-11.51-.16-2.14-.13-4.65-.22-6.71-.32l-86.65-.22-13,.34-7.31-.21c-10.05.19-20.07.23-28.4.53a66.5,66.5,0,0,0-7.54.77c0-3.32,0-6.86.06-10.42V98.39c0-.53,0-1,.07-1.56a9.33,9.33,0,0,1,.12-1.51,28.81,28.81,0,0,1,2.67-9,24.44,24.44,0,0,1,21.35-13.83c1.41-.07,3.16,0,4.79,0l4.9.18c8.56.34,17.14.39,26,0,3.94-.16,8.22-.41,12.4-.41l90.48,0c12.75.72,25.24.1,38.24,0,22-.1,57.52.08,98.82.28l3.87,0,1.74.1.87,0,.86.14,1.72.27,1.69.45a11.2,11.2,0,0,1,1.67.54c.54.22,1.11.39,1.64.64a27.8,27.8,0,0,1,6,3.71,27.36,27.36,0,0,1,4.84,5.29,25.55,25.55,0,0,1,4.5,13.65l.05.92c0,.31,0,.69,0,1v2.09c0,1.4,0,2.8,0,4.21,0,2.81,0,5.62,0,8.45,0,1.88,0,3.79,0,5.68C461.17,119.59,459.58,119.37,457.4,119.15Z" fill="#48cbf7"/><path d="M163.4,94a6.71,6.71,0,0,0-.16-1.21,3.7,3.7,0,0,0-2.45-2.23,4.57,4.57,0,0,0-2.6-1,7.75,7.75,0,0,0-2.82.35,6.24,6.24,0,0,0-1.54.09,6.88,6.88,0,0,0-3,3.22,2.51,2.51,0,0,0-.42,1.33,2.93,2.93,0,0,0,.21,1.48s0,.11,0,.16,0,.12,0,.17a2.93,2.93,0,0,0-.21,1.48,2.51,2.51,0,0,0,.42,1.33,6.88,6.88,0,0,0,3,3.22,6.24,6.24,0,0,0,1.54.09,7.75,7.75,0,0,0,2.82.35,4.57,4.57,0,0,0,2.6-1,3.7,3.7,0,0,0,2.45-2.23,6.71,6.71,0,0,0,.16-1.21,7.53,7.53,0,0,0,0-4.41Z" fill="#f99b1d"/><path d="M187.43,94a7.81,7.81,0,0,0-.17-1.21,3.7,3.7,0,0,0-2.45-2.23,4.57,4.57,0,0,0-2.6-1,7.66,7.66,0,0,0-2.81.35,6.32,6.32,0,0,0-1.55.09,6.88,6.88,0,0,0-3,3.22,2.61,2.61,0,0,0-.41,1.33,2.93,2.93,0,0,0,.21,1.48v.33a2.93,2.93,0,0,0-.21,1.48,2.61,2.61,0,0,0,.41,1.33,6.88,6.88,0,0,0,3,3.22,6.32,6.32,0,0,0,1.55.09,7.66,7.66,0,0,0,2.81.35,4.57,4.57,0,0,0,2.6-1,3.7,3.7,0,0,0,2.45-2.23,7.81,7.81,0,0,0,.17-1.21,7.53,7.53,0,0,0,0-4.41Z" fill="#ffd30e"/><path d="M211.45,94a6.71,6.71,0,0,0-.16-1.21,3.7,3.7,0,0,0-2.45-2.23,4.57,4.57,0,0,0-2.6-1,7.75,7.75,0,0,0-2.82.35,6.24,6.24,0,0,0-1.54.09,6.88,6.88,0,0,0-3,3.22,2.51,2.51,0,0,0-.42,1.33,2.93,2.93,0,0,0,.21,1.48l0,.16,0,.17a2.93,2.93,0,0,0-.21,1.48,2.51,2.51,0,0,0,.42,1.33,6.88,6.88,0,0,0,3,3.22,6.24,6.24,0,0,0,1.54.09,7.75,7.75,0,0,0,2.82.35,4.57,4.57,0,0,0,2.6-1,3.7,3.7,0,0,0,2.45-2.23,6.71,6.71,0,0,0,.16-1.21,7.53,7.53,0,0,0,0-4.41Z" fill="#57eba8"/><path d="M415.78,223.53V171.48A10.24,10.24,0,0,0,409,162a9.23,9.23,0,0,0-3-.61c-.55,0-.94,0-1.38,0h-1.3l-83.23,0c-6.27,0-12.61,0-18.81-.06-4.82,0-9.62-.28-14.17-.24-4.71,0-9.14.24-14.39.24l-82.91.07a14.77,14.77,0,0,0-1.9.1,10.65,10.65,0,0,0-2.57.65,11.39,11.39,0,0,0-2.66,1.57,10.34,10.34,0,0,0-2.18,2.43,10.51,10.51,0,0,0-1.68,5.77c0,1.47,0,2.62,0,3.18.24,5.66.28,11.72.25,18.17,0,9.94,0,20,0,30v2.34l0,.55a7,7,0,0,0,.12,1.11,10.19,10.19,0,0,0,1.61,4.1,10.49,10.49,0,0,0,7.31,4.52c.37,0,.73.06,1.1.08l.94,0,1.83,0,3.65.07,7.23.2c7.52,0,15.17.07,22.14-.2,2.59-.1,19,.24,25.33.24,42.78,0,106.83-.59,127.93-.58l27.23.12a10.89,10.89,0,0,0,3.05-.46,11,11,0,0,0,2.78-1.35,10.4,10.4,0,0,0,3.77-4.79,9.79,9.79,0,0,0,.66-3l0-.75v-1.95Zm-3.7,2.17a7,7,0,0,1-.64,2.75,6.77,6.77,0,0,1-5.95,3.82c-12.47-.16-27-.16-38.49-.17h-6.61s-59.28.43-78.28.44l-37.67.05c-5.23,0-9.69.22-14.37.25-4.38,0-9.07-.25-13.73-.27l-27.67-.1a7,7,0,0,1-4.93-2.86,6.88,6.88,0,0,1-1.1-2.39,9.74,9.74,0,0,1-.2-2.54c0-3.72,0-6.36.07-7.13.19-4.88.25-9.1,0-13.73.16-5.88.12-11.15-.05-17.36-.09-3.41-.13-7.18-.13-11,0-1,0-1.9,0-2.84a10.5,10.5,0,0,1,.19-2.45,6.65,6.65,0,0,1,2.23-3.6,7,7,0,0,1,4-1.63c.41,0,1.07,0,1.72,0l2,0,4.14,0c5.6,0,11.24,0,13.85-.13,6.93-.27,14.49-.23,21.48.07,4.63.2,9.27.23,14.07,0,2.13-.09,4.44-.23,6.7-.24h48.92c6.89.41,13.64.06,20.67,0,11.92-.06,31.1.05,53.43.16L393,165l9,0h3.4c.33,0,.59,0,.89.05a6.68,6.68,0,0,1,5.29,4.07,6.88,6.88,0,0,1,.43,1.69c0,.3,0,.56.05.9v1.15c0,3.08,0,6.17,0,9.26,0,6.18,0,12.37,0,18.49,0,5.74,0,12.24,0,18.87,0,1.66,0,3.32,0,5C412.08,224.89,412.09,225.37,412.08,225.7Z" fill="#d1f2fd"/><path d="M251.88,293.19V255.72a10,10,0,0,0-1.13-4.76,9.75,9.75,0,0,0-8-5.17l-.56,0h-3.31l-3.75-.05c-1.93,0-3.85-.28-5.67-.25s-3.66.25-5.76.25l-33.17.07a10.87,10.87,0,0,0-4.33.74,8.22,8.22,0,0,0-3.29,2.29,11.56,11.56,0,0,0-1.93,3.8,11.16,11.16,0,0,0-.37,2.18c-.05.81,0,1.36,0,2-.09,7.95.2,16.11-.43,23.75,0,3-.07,6.07.19,8.86,0,.52,0,2.42-.08,4.51,0,1-.07,2.13-.1,3.12a10.09,10.09,0,0,0,.43,3.1,10.25,10.25,0,0,0,5.49,6.19,10.14,10.14,0,0,0,4.35.91l3.67,0,14.82-.21c9.6-.14,18.11-.29,22.33-.29l10.9.12a9.82,9.82,0,0,0,4.79-1.26,9.68,9.68,0,0,0,3.55-3.44,9.54,9.54,0,0,0,1.42-4.73C251.9,295.9,251.88,294.6,251.88,293.19Zm-3.41-37.11q0,1.46,0,3c0,2.05-.06,4.2-.08,6.43-.12,8.94-.24,19.13-.22,28.93v2.67c0,.23,0,.47,0,.7a6.14,6.14,0,0,1-1,2.69,6.38,6.38,0,0,1-5,2.76c-5-.16-10.81-.16-15.4-.17h-2.64s-23.72.43-31.32.44a29.24,29.24,0,0,1-3.49-.08,6.27,6.27,0,0,1-2.76-1.14,6.44,6.44,0,0,1-2.7-5.14c0-2-.22-3.86-.26-5.72s.25-3.63.27-5.49c.05-5,.06-18.21.18-19.44a23.45,23.45,0,0,0,0-5.49c.08-1.18.11-2.29.1-3.43,0-.56,0-1.13,0-1.72v-.77a4.26,4.26,0,0,1,0-.71,5.55,5.55,0,0,1,4.32-4.89,7.69,7.69,0,0,1,1.73-.19l3.13,0c2.24,0,4.49,0,5.54-.12a42.54,42.54,0,0,1,8.59.07,25.83,25.83,0,0,0,5.63,0,23.21,23.21,0,0,1,2.68-.24l19.57,0a21.91,21.91,0,0,0,4.12.18,31.71,31.71,0,0,1,3.85-.05,6.19,6.19,0,0,1,2.91,1.3,6.29,6.29,0,0,1,2.12,3.27,7.35,7.35,0,0,1,.2,1.06l0,.56C248.48,255.57,248.47,255.85,248.47,256.08Z" fill="#d1f2fd"/><path d="M344.21,186.09c-.2,0-.4-.05-.6-.05l-27.32.05c-1,0-2,0-3-.08a19.28,19.28,0,0,0-2.28-.33c-.76,0-1.47.33-2.32.33-4.44,0-8.89.09-13.33.1-.58,0-2.46-.51-2.82-.39a7.8,7.8,0,0,1-2.92.33c-3.2-.12-6.48.28-9.55-.57a11.17,11.17,0,0,0-3.57.26c-.41.13-3.05-.31-4.07-.31l-20.65-.09c-3.39,0-4.18,2-4.31,3-.07.6,1.91,2,2.27,2,.78.1,12.52.11,17.58.08,2,0,4-.06,6.06-.06.84,0,1.56-.29,2.31-.34s1.46.34,2.21.37c2,.07,7.32.08,7.81.24a3,3,0,0,0,2.21,0,6.13,6.13,0,0,0,2.79-.06,7.62,7.62,0,0,1,3.55.07,12.86,12.86,0,0,0,4.42,0,5.33,5.33,0,0,1,3.46.1,3.25,3.25,0,0,0,2.26,0,3.25,3.25,0,0,1,1.08-.31c2.62,0,5.25,0,7.87,0,1.11.56,2.19.08,3.32,0,3.84-.16,12.35.55,20.23.49,4,0,10.5,0,10.5-2.29C347.38,186.8,344.68,186.1,344.21,186.09Z" fill="#d1f2fd"/><path d="M326.39,196.74c-.12,0-.24-.05-.36-.05l-16.92.06a16.79,16.79,0,0,1-1.88-.08c-.48-.07-1-.38-1.41-.33s-.91.32-1.43.33c-2.76,0-5.51.08-8.26.09-.36,0-1.52-.51-1.75-.38a3.19,3.19,0,0,1-1.81.32c-2-.12-4,.28-5.91-.57a4.49,4.49,0,0,0-2.21.26,22.64,22.64,0,0,1-2.52-.31L269.14,196c-2.1,0-2.59,2-2.67,3,0,.6,1.19,1.95,1.41,2,.48.1,7.75.11,10.88.08,1.25,0,2.51-.06,3.76-.06a12,12,0,0,0,1.43-.34c.43,0,.9.34,1.37.37,1.24.07,4.53.08,4.84.24a1.19,1.19,0,0,0,1.36,0,2.41,2.41,0,0,0,1.73-.06,3,3,0,0,1,2.2.08,5.1,5.1,0,0,0,2.74,0,2.13,2.13,0,0,1,2.14.09,1.31,1.31,0,0,0,1.4,0,1.57,1.57,0,0,1,.67-.31c1.62,0,3.25,0,4.87,0,.69.55,1.36.07,2.06,0,2.37-.16,7.64.55,12.52.5,2.51,0,6.51,0,6.51-2.3A2.69,2.69,0,0,0,326.39,196.74Z" fill="#d1f2fd"/><path d="M307.63,206.88s-.09,0-.13,0l-6,.06a1.84,1.84,0,0,1-.66-.08c-.17-.06-.34-.37-.5-.33s-.32.33-.51.33c-1,0-1.94.08-2.91.09-.12,0-.53-.5-.61-.38a.58.58,0,0,1-.64.33c-.7-.12-1.41.28-2.09-.57-.26,0-.53-.1-.77.26-.09.13-.67-.31-.89-.32l-4.51-.08c-.74,0-.91,2.05-.94,3a6.22,6.22,0,0,0,.49,2,34.24,34.24,0,0,0,3.84.08c.44,0,.88-.06,1.32-.07.19,0,.34-.28.51-.33s.32.34.48.36a8.49,8.49,0,0,1,1.71.24c.17.25.32.34.48,0,.21.21.39.16.61-.07a.46.46,0,0,1,.77.08c.18.23.78.33,1,.05s.51-.31.75.09.33.31.5,0c.07-.13.15-.31.23-.32.57,0,1.15,0,1.72,0,.24.55.48.08.73,0,.83-.15,2.69.55,4.41.5.88,0,2.29,0,2.29-2.3C308.32,207.59,307.73,206.9,307.63,206.88Z" fill="#d1f2fd"/><path d="M331.88,293.19V255.72a10,10,0,0,0-1.13-4.76,9.75,9.75,0,0,0-8-5.17l-.56,0h-3.31l-3.75-.05c-1.93,0-3.85-.28-5.67-.25s-3.66.25-5.76.25l-33.17.07a10.87,10.87,0,0,0-4.33.74,8.22,8.22,0,0,0-3.29,2.29,11.56,11.56,0,0,0-1.93,3.8,11.16,11.16,0,0,0-.37,2.18c-.05.81,0,1.36,0,2-.09,7.95.2,16.11-.43,23.75,0,3-.07,6.07.19,8.86.05.52,0,2.42-.08,4.51,0,1-.07,2.13-.1,3.12a10.09,10.09,0,0,0,.43,3.1,10.25,10.25,0,0,0,5.49,6.19,10.14,10.14,0,0,0,4.35.91l3.67,0,14.82-.21c9.6-.14,18.11-.29,22.33-.29l10.9.12a9.82,9.82,0,0,0,4.79-1.26,9.68,9.68,0,0,0,3.55-3.44,9.54,9.54,0,0,0,1.42-4.73C331.9,295.9,331.88,294.6,331.88,293.19Zm-3.41-37.11q0,1.46,0,3c0,2.05-.06,4.2-.08,6.43-.12,8.94-.24,19.13-.22,28.93v2.67c0,.23,0,.47,0,.7a6.14,6.14,0,0,1-1,2.69,6.38,6.38,0,0,1-5,2.76c-5-.16-10.81-.16-15.4-.17h-2.64s-23.72.43-31.32.44a29.24,29.24,0,0,1-3.49-.08,6.27,6.27,0,0,1-2.76-1.14,6.44,6.44,0,0,1-2.7-5.14c0-2-.22-3.86-.26-5.72s.25-3.63.27-5.49c.05-5,.06-18.21.18-19.44a23.45,23.45,0,0,0,0-5.49c.08-1.18.11-2.29.1-3.43,0-.56,0-1.13-.05-1.72v-.77a4.26,4.26,0,0,1,0-.71,5.55,5.55,0,0,1,4.32-4.89,7.69,7.69,0,0,1,1.73-.19l3.13,0c2.24,0,4.49,0,5.54-.12a42.54,42.54,0,0,1,8.59.07,25.83,25.83,0,0,0,5.63,0,23.21,23.21,0,0,1,2.68-.24l19.57,0a21.91,21.91,0,0,0,4.12.18,31.71,31.71,0,0,1,3.85-.05,6.19,6.19,0,0,1,2.91,1.3,6.29,6.29,0,0,1,2.12,3.27,7.35,7.35,0,0,1,.2,1.06l0,.56C328.48,255.57,328.47,255.85,328.47,256.08Z" fill="#d1f2fd"/><path d="M411.88,293.19V255.72a10,10,0,0,0-1.13-4.76,9.75,9.75,0,0,0-8-5.17l-.56,0h-3.31l-3.75-.05c-1.93,0-3.85-.28-5.67-.25s-3.66.25-5.76.25l-33.17.07a10.87,10.87,0,0,0-4.33.74,8.22,8.22,0,0,0-3.29,2.29,11.56,11.56,0,0,0-1.93,3.8,11.16,11.16,0,0,0-.37,2.18c-.05.81,0,1.36,0,2-.09,7.95.2,16.11-.43,23.75,0,3-.07,6.07.19,8.86.05.52,0,2.42-.08,4.51,0,1-.07,2.13-.1,3.12a10.09,10.09,0,0,0,.43,3.1,10.25,10.25,0,0,0,5.49,6.19,10.14,10.14,0,0,0,4.35.91l3.67,0,14.82-.21c9.6-.14,18.11-.29,22.33-.29l10.9.12a9.82,9.82,0,0,0,4.79-1.26,9.68,9.68,0,0,0,3.55-3.44,9.54,9.54,0,0,0,1.42-4.73C411.9,295.9,411.88,294.6,411.88,293.19Zm-3.41-37.11q0,1.46,0,3c0,2.05-.06,4.2-.08,6.43-.12,8.94-.24,19.13-.22,28.93v2.67c0,.23,0,.47,0,.7a6.14,6.14,0,0,1-1,2.69,6.38,6.38,0,0,1-5,2.76c-5-.16-10.81-.16-15.4-.17h-2.64s-23.72.43-31.32.44a29.24,29.24,0,0,1-3.49-.08,6.27,6.27,0,0,1-2.76-1.14,6.44,6.44,0,0,1-2.7-5.14c0-2-.22-3.86-.26-5.72s.25-3.63.27-5.49c.05-5,.06-18.21.18-19.44a23.45,23.45,0,0,0,0-5.49c.08-1.18.11-2.29.1-3.43,0-.56,0-1.13-.05-1.72v-.77a4.26,4.26,0,0,1,0-.71,5.55,5.55,0,0,1,4.32-4.89,7.69,7.69,0,0,1,1.73-.19l3.13,0c2.24,0,4.49,0,5.54-.12a42.54,42.54,0,0,1,8.59.07,25.83,25.83,0,0,0,5.63,0,23.21,23.21,0,0,1,2.68-.24l19.57,0a21.91,21.91,0,0,0,4.12.18,31.71,31.71,0,0,1,3.85-.05,6.19,6.19,0,0,1,2.91,1.3,6.29,6.29,0,0,1,2.12,3.27,7.35,7.35,0,0,1,.2,1.06l0,.56C408.48,255.57,408.47,255.85,408.47,256.08Z" fill="#d1f2fd"/><circle cx="406.1" cy="171.56" r="22.96" fill="#fff"/><circle cx="406.1" cy="171.83" r="13.69" fill="#d5fae9"/><path d="M430.5,163.31c-.18-.67-.33-1.38-.55-2.07l-.76-2.1a19.43,19.43,0,0,0-8.47-8.75,11.31,11.31,0,0,0-1.47-1,15.3,15.3,0,0,0-2.23-1.16,23.21,23.21,0,0,0-9.26-2.05l-1.57,0c-.51,0-1,.09-1.49.13s-.94.06-1.37.14l-1.23.23-1.06.19-.86.24a18.58,18.58,0,0,0-2.48.45l-1.46.36c-.51.16-1,.36-1.57.55a25.36,25.36,0,0,0-11.62,11.91,9.35,9.35,0,0,0-.89,1.92c-.15.45-.3.93-.47,1.44a15.59,15.59,0,0,0-.35,1.6,16.78,16.78,0,0,0-.21,5.62v1.27a16.72,16.72,0,0,0,.21,5.61,15.78,15.78,0,0,0,.35,1.61c.17.51.32,1,.47,1.44a9.35,9.35,0,0,0,.89,1.92,26.34,26.34,0,0,0,4.82,6.95,26.71,26.71,0,0,0,6.8,5c.55.19,1.06.39,1.57.54l1.46.37a20.33,20.33,0,0,0,2.48.45l.86.23,1.06.2,1.23.23c.43.07.89.09,1.37.14s1,.1,1.49.13l1.57,0a23.21,23.21,0,0,0,9.26-2.05,15.3,15.3,0,0,0,2.23-1.16,12.41,12.41,0,0,0,1.47-1,19.46,19.46,0,0,0,8.47-8.76c.25-.7.51-1.4.76-2.09s.37-1.4.55-2.07a26.47,26.47,0,0,0,0-16.51Zm-3.91,9.19a10.72,10.72,0,0,1-1,3.52c-.11.4-.22.82-.33,1.23s-.3.82-.45,1.24a21.5,21.5,0,0,1-1.12,2.46,21.76,21.76,0,0,1-3.41,4.51,22.6,22.6,0,0,1-2.26,2.48,10.57,10.57,0,0,1-2.13,1.26,18.32,18.32,0,0,1-2.33.8c-.79.18-1.55.42-2.34.53-.38.07-.76.16-1.13.26a8.67,8.67,0,0,0-1.13.22,17.36,17.36,0,0,1-4.82.43,17.58,17.58,0,0,1-4.8-1.05,20.44,20.44,0,0,1-6.55-4,8,8,0,0,1-3.61-4.16,9.28,9.28,0,0,1-2.55-3.55,10.34,10.34,0,0,1-.19-1.11c0-.35,0-.68,0-1a5.53,5.53,0,0,0-.12-.91,4,4,0,0,0-.19-.92,3.72,3.72,0,0,1,0-1.61,6.46,6.46,0,0,0,0-3.19,3.72,3.72,0,0,1,0-1.61,4,4,0,0,0,.19-.92,5.51,5.51,0,0,0,.12-.92c0-.31,0-.64,0-1a10.34,10.34,0,0,1,.19-1.11,9.31,9.31,0,0,1,2.55-3.56,8,8,0,0,1,3.61-4.15,20.44,20.44,0,0,1,6.55-4,17.58,17.58,0,0,1,4.8-1.05,17.36,17.36,0,0,1,4.82.43,10.74,10.74,0,0,0,1.13.22c.37.1.75.19,1.13.26.79.11,1.55.35,2.34.52a20.1,20.1,0,0,1,2.33.81,10.57,10.57,0,0,1,2.13,1.26,21.72,21.72,0,0,1,2.26,2.48,21.76,21.76,0,0,1,3.41,4.51,20.75,20.75,0,0,1,1.12,2.46c.15.42.34.81.45,1.23s.22.84.33,1.24a10.65,10.65,0,0,1,1,3.52c0,.32.05.62.07.93S426.62,172.18,426.59,172.5Z" fill="#57eba8"/><path d="M552.44,47.24H384.18a18.4,18.4,0,0,0-18.4,18.4V118a18.4,18.4,0,0,0,18.4,18.41H404.4v27.7a3.38,3.38,0,0,0,5.77,2.39l30.1-30.09H552.44A18.4,18.4,0,0,0,570.84,118V65.64A18.4,18.4,0,0,0,552.44,47.24Z" fill="#fff"/><path d="M573.9,83.59q0-6.6,0-13V65.89c0-.53-.05-1.19-.08-1.77a21.86,21.86,0,0,0-1.67-6.91,21.09,21.09,0,0,0-6.63-8,22.82,22.82,0,0,0-8.16-3.75,19.26,19.26,0,0,0-2.44-.44c-.81-.1-1.62-.09-2.43-.14l-4.35,0c-5.18,0-10.35-.33-17.09-.57l-52.64-.14-15.87.43c-15.49.07-31.41-.86-46.15-.59-7.83.15-15.54.25-23.28.3l-5.81,0h-2.92a23.9,23.9,0,0,0-3.35.28,21.38,21.38,0,0,0-12,6.12,21.68,21.68,0,0,0-5.23,8.83,18.79,18.79,0,0,0-.58,2.55l-.2,1.29c0,.43,0,.87-.08,1.3-.06.93-.05,1.64-.05,2.4v2.28c0,6.08,0,12.3,0,18.77.49,7.93.36,17.15.08,26.31l.12,1.71q0,.52.06,1.14c0,.41,0,.83.1,1.37a20.68,20.68,0,0,0,1.58,6.69,22,22,0,0,0,3.5,5.75,28.45,28.45,0,0,0,3.18,3.06,20.85,20.85,0,0,0,9.76,4.61,16.59,16.59,0,0,0,2.43.28c.42,0,.79.05,1.13.05l1.08,0c1.43,0,2.88,0,4.43-.05,2.47-.08,7.27.25,11,.42.12,4,.59,10.12.5,13-.1,3.08,0,5.82.07,8.72,0,.72.06,1.46.09,2.21l0,.57v.14l0,.24.05.48a5.64,5.64,0,0,0,3.73,4.53,5.59,5.59,0,0,0,4.31-.21,6.83,6.83,0,0,0,1-.58l.52-.45.22-.2.17-.17,1.7-1.64L418,162c3.12-2.9,6.3-5.79,7.59-6.87,5.27-5.61,10.65-11.16,15.69-15.83l1.68.08,36.76,0c15.94,0,31.11.07,46.77.37,7.37.13,15,0,22.79-.22l2.92-.07a23.91,23.91,0,0,0,3.33-.33A20.59,20.59,0,0,0,562,137a22.62,22.62,0,0,0,5.39-4,23.47,23.47,0,0,0,3.89-5.4,21.42,21.42,0,0,0,2.51-9.14c.11-2.78.15-5.25.22-7.64C573.94,101.52,573.92,92.41,573.9,83.59ZM568,67.87c-.14,5.09-.3,10.51-.45,15.93-.1,8.18-.11,16.07,0,23.62.05,3.75.11,7.41.16,11a16,16,0,0,1-.59,4.38,17.64,17.64,0,0,1-1.73,4,17.58,17.58,0,0,1-3.95,3.94,15.79,15.79,0,0,1-7.25,2.81c-.36.05-.73,0-1.1.07s-.75.05-1.22.05h-2.75l-5.75.05-12.11.11-41.07.39-21.16-.6-28.77.07h-1.16l-.81.81-24,24.16c-1.17,1.1-3.17,3.08-5.6,5.54l-.43.43c-.05,0-.07.09-.12.09s-.14.07-.21.11a.79.79,0,0,1-.57-.14.69.69,0,0,1-.28-.58c0-1,0-2.06,0-3.1-.14-8.32-.35-16.91-.56-21.14,0-.75,0-1.59,0-2.44v-1l0-2-2.05,0-1.48,0c-2.11-.11-5.32-.21-9-.31L388,134l-3.09-.06-.77,0-.68-.05a10,10,0,0,1-1.33-.14,15.92,15.92,0,0,1-8.81-4.38,17.31,17.31,0,0,1-3.74-5.52,14.78,14.78,0,0,1-.87-3.19,11.53,11.53,0,0,1-.17-1.66l0-.84v-1q0-3.91,0-7.88c0-5.27,0-10.57,0-15.87s0-10.57,0-15.8c0-2.61,0-5.22,0-7.8,0-1.29,0-2.58,0-3.86,0-.63.06-1.11.08-1.67s.16-1.06.23-1.59a15.63,15.63,0,0,1,4.54-8.71,15.91,15.91,0,0,1,7.07-4,10.51,10.51,0,0,1,1.37-.24,9.43,9.43,0,0,1,1.55-.13c.28,0,.54,0,.86,0h1l2.12,0,9.9.1,23.73.25c16.43.16,32.53.28,39.17.13,13.55.51,28.79.68,45.13.48l15.93-.45c10.42-.11,20.9,0,31.13,0a15.71,15.71,0,0,1,11.66,5.24A15.49,15.49,0,0,1,567.37,61l.4,1.61c.07.55.17,1.09.22,1.65s.06,1.06.06,1.7Z" fill="#065dba"/><path d="M534.69,74.59c3,.69,3.48,1.51,3.74,2.21s-3,1-6.5,1.2c-7.13.38-15.43,0-23,0l-7.67.53-21.4-.13-7.83.49c-4.86.12-12.42-.26-19.75,0-1.5.06-3,.34-4.65.33-1.38,0-2.21-.29-3.44-.3s-2.18.23-3.39.23-2.29-.2-3.3-.18c-4.09.13-26.78-.24-31.09-.31-23.73,0-14.14-3.53-10.72-3.82,3.65-.32,8.05-.36,12.46-.55l3.21.21,5.72-.34,38,.22c.9.1,2,.2,2.94.33a22.82,22.82,0,0,0,5.06.17c3.25-.37,6.74-.42,10.42-.48,2.31,0,4.49-.31,7.24-.52l10.9.07,4.68.43c2.67-.12,5.49-.29,8.4-.36s12.62-.27,14.31-.39a47,47,0,0,1,7.13,0C529.37,74,533,74.2,534.69,74.59Z" fill="#d1f2fd"/><path d="M484.73,91.69c2,.7,2.27,1.51,2.45,2.22s-2,1-4.24,1.19c-4.66.38-10.08,0-15,0l-5,.53-14-.13-5.12.48c-3.17.12-8.1-.25-12.89.05-1,.06-1.93.34-3,.33-.9,0-1.45-.28-2.25-.29s-1.42.22-2.21.23-1.49-.21-2.15-.18c-2.68.12-17.49-.25-20.3-.32-15.49,0-9.23-3.53-7-3.82,2.39-.31,5.26-.35,8.14-.55l2.09.22,3.74-.35,24.81.23c.59.09,1.31.19,1.92.33A9.51,9.51,0,0,0,438,92a48.73,48.73,0,0,1,6.81-.48c1.5,0,2.92-.31,4.72-.51l7.11.06,3.06.43c1.74-.11,3.58-.29,5.48-.35s8.24-.28,9.35-.4a20.61,20.61,0,0,1,4.65,0A38.6,38.6,0,0,1,484.73,91.69Z" fill="#d1f2fd"/><path d="M538.3,108.8c3.09.69,3.56,1.51,3.84,2.21s-3.12,1-6.66,1.2c-7.32.38-15.82,0-23.6,0l-7.87.53-21.93-.13-8,.49c-5,.12-12.72-.26-20.23.05-1.55.06-3,.34-4.77.33-1.42,0-2.27-.29-3.54-.3s-2.22.23-3.47.23-2.34-.21-3.38-.18c-4.2.13-27.45-.24-31.86-.31-24.33,0-14.51-3.53-11-3.83,3.74-.31,8.25-.35,12.77-.54l3.29.21,5.87-.34,39,.22c.93.1,2.06.2,3,.33a23.9,23.9,0,0,0,5.18.17c3.34-.37,6.91-.42,10.69-.48,2.37,0,4.6-.31,7.42-.52l11.17.07,4.8.43c2.74-.12,5.63-.29,8.61-.36s12.93-.28,14.67-.39a49.43,49.43,0,0,1,7.31,0C532.85,108.16,536.56,108.41,538.3,108.8Z" fill="#d1f2fd"/><circle cx="191.13" cy="212.88" r="22.96" fill="#fff"/><circle cx="191.13" cy="213.15" r="13.69" fill="#d5fae9"/><path d="M215.53,204.62c-.18-.66-.33-1.37-.55-2.06l-.76-2.1a19.51,19.51,0,0,0-8.47-8.76,12,12,0,0,0-1.48-1,14.66,14.66,0,0,0-2.22-1.16,23.57,23.57,0,0,0-6-1.78,26.09,26.09,0,0,0-3.26-.28h-1.58c-.51,0-1,.08-1.48.12s-.94.07-1.37.15l-1.23.23-1.06.19-.86.24a18.42,18.42,0,0,0-2.48.44l-1.46.37c-.51.15-1,.35-1.57.55a25.36,25.36,0,0,0-11.62,11.91,8.84,8.84,0,0,0-.89,1.92c-.15.44-.31.93-.47,1.43s-.24,1.07-.36,1.61a16.94,16.94,0,0,0-.2,5.61v1.28a16.94,16.94,0,0,0,.2,5.61c.12.55.2,1.1.36,1.61s.32,1,.47,1.43a9,9,0,0,0,.89,1.93,26.1,26.1,0,0,0,4.82,7,26.54,26.54,0,0,0,6.8,5c.55.19,1.06.39,1.57.54l1.46.37a20.33,20.33,0,0,0,2.48.45l.86.23,1.06.2,1.23.23c.43.07.89.09,1.37.14s1,.1,1.48.12h1.58a26,26,0,0,0,3.26-.27,24.41,24.41,0,0,0,6-1.78,15.63,15.63,0,0,0,2.22-1.16,11.85,11.85,0,0,0,1.48-1,19.46,19.46,0,0,0,8.47-8.76c.25-.7.51-1.4.76-2.09s.37-1.4.55-2.07a26.5,26.5,0,0,0,0-16.52Zm-3.91,9.2a10.6,10.6,0,0,1-1,3.51l-.33,1.24c-.11.42-.31.82-.45,1.24a21.5,21.5,0,0,1-1.12,2.46,49.18,49.18,0,0,1-5.67,7,11.06,11.06,0,0,1-2.13,1.26,22.1,22.1,0,0,1-2.33.8c-.8.18-1.55.42-2.34.53-.38.07-.76.16-1.13.25s-.76.13-1.13.22a17,17,0,0,1-4.82.43,17.22,17.22,0,0,1-4.8-1.05,20.24,20.24,0,0,1-6.55-4,8,8,0,0,1-3.61-4.16,9.3,9.3,0,0,1-2.56-3.55c-.07-.4-.15-.76-.18-1.11s0-.68-.05-1a5.53,5.53,0,0,0-.12-.91,3.87,3.87,0,0,0-.19-.92,3.57,3.57,0,0,1,.05-1.61,6.27,6.27,0,0,0,.2-1.6,6.2,6.2,0,0,0-.2-1.59,3.57,3.57,0,0,1-.05-1.61,3.94,3.94,0,0,0,.19-.93,5.26,5.26,0,0,0,.12-.91c0-.32,0-.64.05-1s.11-.71.18-1.12a9.38,9.38,0,0,1,2.56-3.55,8,8,0,0,1,3.61-4.15,20.27,20.27,0,0,1,6.55-4,17.58,17.58,0,0,1,4.8-1.05,17.36,17.36,0,0,1,4.82.43c.37.09.74.16,1.13.22s.75.18,1.13.26c.79.11,1.54.35,2.34.52a20.1,20.1,0,0,1,2.33.81A10.53,10.53,0,0,1,203,196.5a22.64,22.64,0,0,1,2.26,2.49,21.85,21.85,0,0,1,3.41,4.51A20.75,20.75,0,0,1,209.8,206c.14.41.34.81.45,1.23l.33,1.24a10.6,10.6,0,0,1,1,3.51c0,.33,0,.63.07.94S211.64,213.5,211.62,213.82Z" fill="#57eba8"/><path d="M23.69,214.37A71.15,71.15,0,0,0,162,217.93l26.31-5.64a.68.68,0,0,0,.23-1.23l-24.22-15.67a71.14,71.14,0,1,0-140.59,19Z" fill="#fff"/><path d="M191.76,210.68a3.83,3.83,0,0,0-.65-1.31,3.6,3.6,0,0,0-.5-.53,2.47,2.47,0,0,0-.27-.21l-.21-.14-.46-.27-.92-.54-1.89-1.14c-1.28-.78-2.57-1.6-3.86-2.44-2.57-1.67-5.1-3.44-7.35-5.14-1.47-1.1-4.67-3.3-8-5.52A51.35,51.35,0,0,0,166,184c-1.69-5.63-3.67-11.64-5.8-17.21a36.25,36.25,0,0,0-6-10.29c-1.2-1.36-2.54-2.8-3.78-4.25a74.89,74.89,0,0,0-33.59-23.06c-5.33-2.52-11.15-3.14-17-3.61a79.64,79.64,0,0,0-19.18.8,75.52,75.52,0,0,0-24.33,8.49,73.39,73.39,0,0,0-37.73,63.65,70.21,70.21,0,0,0,1.89,16.53,70.08,70.08,0,0,0,5,15.85,73.33,73.33,0,0,0,8.22,13.76c.54.77,1.17,1.47,1.75,2.2s1.19,1.46,1.83,2.15l1.5,1.61c1,1,2.41,2.46,4.3,4.08a78.61,78.61,0,0,0,6.81,5.36,83.57,83.57,0,0,0,8.91,5.32,82.49,82.49,0,0,0,10.27,4.28,81.23,81.23,0,0,0,10.53,2.66,76.94,76.94,0,0,0,17,1,70.16,70.16,0,0,0,15.64-2.48A72.81,72.81,0,0,0,127,265.2c.49-.25,1-.48,1.44-.74l1.34-.83,2.54-1.64c1.6-1.17,3.13-2.33,4.69-3.5,2.87-2.27,6.24-4.41,9-7.23a69.28,69.28,0,0,0,6.29-7.21l1.7-2.31c.59-.77,1.08-1.63,1.63-2.46s1.1-1.66,1.59-2.53,1-1.74,1.44-2.6a75.53,75.53,0,0,0,4.36-9.66,20.43,20.43,0,0,0,.7-2c.19-.61.37-1.16.53-1.65l.09-.28c.74-.15.92-.18,1-.19a55.29,55.29,0,0,0,10.88-2.32c2.36-.37,4.58-.79,6.82-1.29,1.11-.25,2.24-.51,3.38-.8l1.74-.45.45-.12.22-.06.29-.08a4.84,4.84,0,0,0,.6-.22,3.82,3.82,0,0,0,1.81-1.87A3.75,3.75,0,0,0,191.76,210.68Zm-30.4,4.46-1.62.35-.53,1.69-.93,3-.47,1.48-.57,1.45L156.09,226c-.45.93-.91,1.85-1.36,2.77-.23.46-.44.92-.68,1.37l-.78,1.32L151.7,234l-1.76,2.46-.88,1.21-1,1.13a107.09,107.09,0,0,1-11.32,12.73c-.37.34-1.3,1.06-2.53,2-.31.23-.63.48-1,.73l-1.13.73-2.46,1.57c-.87.52-1.79,1-2.67,1.47a28.81,28.81,0,0,1-2.64,1.36c-1.73.77-3.24,1.56-4.39,2l-2.89,1.19c-1,.39-2,.68-3,1-2,.75-4.23,1.19-6.42,1.79a68.07,68.07,0,0,1-41.7-3.73,68.16,68.16,0,0,1-21.17-14.1,63.13,63.13,0,0,1-6.7-7.65,62.43,62.43,0,0,1-4.21-6.37,67.67,67.67,0,0,1-4.72-10.36c-.34-1-.7-2-1-3s-.53-1.88-.77-2.72c-.39-1.68-.71-3-.89-3.75a68.24,68.24,0,0,1,.82-32.05A71.17,71.17,0,0,1,29.84,174a72.89,72.89,0,0,1,3.47-7.31,67.21,67.21,0,0,1,9.35-13.17,68.2,68.2,0,0,1,58.35-22,62.83,62.83,0,0,1,14.22,3.29,89.7,89.7,0,0,1,9.89,4.77,59.54,59.54,0,0,1,9.6,5.66,67.75,67.75,0,0,1,18.88,22.2,68.59,68.59,0,0,1,7.91,28.08l.08,1.4,1.18.76,5,3.24c2.42,1.56,10,7.27,11.63,8.12,1,.5,1.92,1,2.89,1.59C175.34,212.09,168.33,213.66,161.36,215.14Z" fill="#065dba"/><rect x="59.4" y="186.29" width="10" height="33.1" transform="translate(18.76 -5.03) rotate(5.23)" fill="#ebf9fe"/><path d="M126,213a6.54,6.54,0,0,0,0-4.73,7,7,0,0,0-.44-.91,6.41,6.41,0,0,0,.82-.25,6.54,6.54,0,0,0,3.77-8.13,6,6,0,0,0-.64-1.35,8,8,0,0,0,4.28-4.29,12.12,12.12,0,0,0,.94-2.71,6.17,6.17,0,0,0,0-2.71,6.64,6.64,0,0,0-3.44-4.26,6.71,6.71,0,0,0-2.63-.71l-2-.15-8-.57c-1.62-.13-3.16-.44-4.68-.55s-2.19,0-3.36,0c-1.71-.13-3-.47-5.41-.71a49.62,49.62,0,0,0,2.67-7.37,24,24,0,0,0,.94-5.84,11.69,11.69,0,0,0-.36-3.23,17.26,17.26,0,0,0-1-3,10,10,0,0,0-2.11-3.34,6.45,6.45,0,0,0-3.62-1.88,5.57,5.57,0,0,0-4,1.07,6.11,6.11,0,0,0-2.23,3.36,12.18,12.18,0,0,0-.16,1.25c0,.31,0,.63-.07,1A13.31,13.31,0,0,1,95,165,25.51,25.51,0,0,1,92,172.32c-.73,1.36-2.48,4.05-2.56,4.11s-2.21,2.47-3.32,3.55l-.84.82-2.18,2L81.61,184c0,.06-.75.43-1.61.91-.42.26-.91.44-1.36.66a12.19,12.19,0,0,1-1.21.53,9.17,9.17,0,0,1-2,.64c0-1,.09-1.94.14-2.92l.1-1.76-1.68-.1h-.33a27.94,27.94,0,0,0-5.37-.72l-2,.17-3.88-.42a19.23,19.23,0,0,0-2.35,0,23.34,23.34,0,0,0-2.32-.35l-.28,0-1.77-.14-.14,1.77,0,.28a20.83,20.83,0,0,0,0,2.35,18.48,18.48,0,0,0-.35,2.32c-.07,1.36-.13,2.59-.2,3.9-.2.78-.35,1.39-.48,1.92a27.12,27.12,0,0,0-.15,5.42c-.4,3.92-1,7.68-1.13,11.12,0,1.12.15,1.77.07,2.57,0,.54-.27.88-.34,1.52s.06,1.43,0,2.18c-.15,2-.43,4-.57,6.06l-.13,1.85,1.78.09,1.48.07a18.55,18.55,0,0,1,2.18,0,53.57,53.57,0,0,0,5.7.36c2.52,0,5.25.32,7.26.32h1c0-.3.09-.62.14-1,.17-1.3.28-2.94.42-4.6q3.33.85,6.41,1.77c2.49.73,4.92,1.5,7.41,2a52.79,52.79,0,0,0,5.71.65c1.19.14,2,.4,3.37.53s3.09.08,4.71.2c5.28.41,10.5,1,16.21,1.34a9.29,9.29,0,0,0,2.43-.27,5.12,5.12,0,0,0,3-1.82,5.45,5.45,0,0,0,.9-3.74,6.38,6.38,0,0,0-.89-2.6,6.59,6.59,0,0,0,4.56-4Zm-62,8.19-1.35-.36c-2.06-.08-4.23-.38-6.4-.63,0-.55.1-1.11.11-1.66,0-.94-.14-1.82-.1-3.07.15-4.1,1.11-8.4,1.27-12.44,0-1.06-.12-1.72-.07-2.53s.32-1.42.34-2.17c.07-1.36.14-2.59.2-3.9.2-.79.35-1.39.48-1.93a27.75,27.75,0,0,0,.16-5.41q.11-1,.21-2c0-.29,0-.59.05-.88l.87.1,2,.1a28.68,28.68,0,0,0,5.37.71l2-.17,2.94.32c-.1.66-.31,1.23-.41,2.1-.21,1.8-.27,3.71-.31,5.63-.21,1.34-.38,2.44-.53,3.42-.44,3.81-.52,7.07-.66,11.72-.29,3-.57,5.89-.82,8.41l-.15,1.56.52.13c0,1.16-.06,2.6-.11,3.82C67.4,221.7,64.51,221.16,64.05,221.15Zm54.63,0a.7.7,0,0,1-.3.25,3,3,0,0,1-.84.2,14.6,14.6,0,0,1-2.72-.1l-3.11-.27q-3.12-.25-6.22-.44c-2-.11-3.92,0-6.64-.18a59.42,59.42,0,0,1-13.17-1.86c-4.1-1.2-8.38-2.67-12.59-3.56,0-1,0-1.85.09-2.81.12-1.61.45-3.1.55-4.72.16-2.45.31-4.71.47-7a11.2,11.2,0,0,0,.23-1.41,4.5,4.5,0,0,0,0-.75c.21-1.36.39-2.48.54-3.47.18-1.57.3-3.07.39-4.61A15.69,15.69,0,0,0,79.47,189c.7-.35,1.44-.66,2.1-1.05s1.33-.78,2-1.2l1.81-1.37,1.72-1.5c.39-.3,1.71-1.63,2-2,1-1.1,2.06-2.2,3-3.39a21.75,21.75,0,0,0,1.3-1.84c.4-.64.86-1.24,1.21-1.92,2.64-4.07,4.07-7.41,4.49-11.6q0-.44.06-.9a2.69,2.69,0,0,1,.06-.63,2.66,2.66,0,0,1,.59-1.25,2,2,0,0,1,2.16-.26,4.52,4.52,0,0,1,2,2.23c.33.57.57,1.22.85,1.84a9.21,9.21,0,0,1,.53,2,14.23,14.23,0,0,1-.71,4.78,63.46,63.46,0,0,1-4,10.8l-1.16,2.45,2.59.15c5.05.28,10.17.55,15.08,1,2.71.27,4.56.67,6.58.88l3.1.3,1.55.13a3.17,3.17,0,0,1,.94.21,3,3,0,0,1,1.92,2.92,6.16,6.16,0,0,1-2.08,4,2.4,2.4,0,0,1-.78.46,2.49,2.49,0,0,1-.32.08,2.54,2.54,0,0,1-.42,0l-3.07-.28-.19,2.32-.1,1.21h0l0,.36a2.81,2.81,0,0,1,1.65.78,3,3,0,0,1,1.14,1.44,3.35,3.35,0,0,1-.69,3,3.24,3.24,0,0,1-2.2,1.11c-.34,0-1.17,0-1.79-.08l-1.93-.12v.1h0l-.25,3.14a3.27,3.27,0,0,1,2.92,3.6,3.35,3.35,0,0,1-1.71,2.5,3.19,3.19,0,0,1-1.91.14l-3.11-.16-.16,2-.12,1.58h0l0,.36a3,3,0,0,1,2.72,2.27A2.62,2.62,0,0,1,118.68,221.14Z" fill="#48cbf7"/><path d="M66.56,213.74c0-.23.19-.46.17-.66a1.85,1.85,0,0,0-.68-1.1,9.85,9.85,0,0,1-1-.87,3.43,3.43,0,0,0-.34.06,2.25,2.25,0,0,0-1.12-.07,2.29,2.29,0,0,0-1.12-.11l-.33-.12a7.62,7.62,0,0,1-1.1.71,1.8,1.8,0,0,0-.84,1c-.06.19.09.45.06.68a7.29,7.29,0,0,1-.33,1.11,1.54,1.54,0,0,0,.07,1.21c.11.19.36.21.43.33s0,.33.07.44a6.05,6.05,0,0,0,.57.48,4.56,4.56,0,0,0,.08.49c.21.32.61.34,1.07.25l.34.16H63a.33.33,0,0,0,.24,0l.37.06.37-.1c.43.15.83.21,1.09-.08a2.84,2.84,0,0,0,.16-.47,4.67,4.67,0,0,0,.63-.39c.13-.08.06-.32.14-.42s.35-.09.49-.25a1.58,1.58,0,0,0,.25-1.18A8.31,8.31,0,0,1,66.56,213.74Zm-3.21.64Zm0,0Zm0,0Zm0,0Zm0,0h0v0h0l-.06-.09c.07.08,0,.08,0,0s0,.1,0,0v0c0,.07.06-.12,0,0s0,.07,0,0Z" fill="#48cbf7"/></svg>