<svg enable-background="new 0 0 48 48" height="48" viewBox="0 0 48 48" width="48" xmlns="http://www.w3.org/2000/svg"><g fill="#888888"><path d="m23.636 34.172-6.365 6.363c-.944.945-2.2 1.465-3.535 1.465s-2.59-.52-3.537-1.465l-1.414-1.413c-1.949-1.95-1.949-5.122 0-7.071l9.193-9.193c.945-.945 2.201-1.465 3.536-1.465s2.591.52 3.535 1.465l1.414 1.414c.391.391 1.023.391 1.414 0 .391-.39.391-1.023 0-1.414l-1.413-1.414c-1.322-1.322-3.079-2.051-4.949-2.051-1.869 0-3.628.729-4.95 2.051l-9.193 9.193c-2.729 2.728-2.729 7.169 0 9.899l1.414 1.413c1.322 1.323 3.08 2.051 4.95 2.051s3.628-.728 4.95-2.051l6.364-6.363c.391-.39.391-1.023 0-1.414-.39-.391-1.023-.391-1.414 0z"/><path d="m39.9 10.837-1.414-1.415c-1.322-1.322-3.08-2.05-4.95-2.05s-3.628.728-4.949 2.05l-6.365 6.364c-.391.39-.391 1.023 0 1.414s1.023.391 1.414 0l6.365-6.364c.944-.944 2.2-1.464 3.535-1.464 1.336 0 2.592.52 3.536 1.464l1.414 1.415c.944.945 1.464 2.2 1.464 3.536 0 1.335-.52 2.591-1.464 3.535l-9.193 9.192c-.944.945-2.199 1.465-3.535 1.465s-2.591-.52-3.535-1.465c-.391-.39-1.024-.39-1.415 0-.39.39-.39 1.023 0 1.414 1.322 1.323 3.079 2.051 4.95 2.051 1.87 0 3.628-.728 4.95-2.051l9.192-9.192c1.322-1.322 2.05-3.079 2.05-4.949s-.728-3.628-2.05-4.95z"/></g></svg>
